<svg width="105" height="35" viewBox="0 0 105 35" fill="none" xmlns="http://www.w3.org/2000/svg">
<path d="M5.38349 34.4061V24.2407M10.4662 29.3234H0.300781H10.4662Z" stroke="var(--color-primary)" stroke-miterlimit="10"/>
<path d="M5.38349 10.1654V0M10.4662 5.08271H0.300781H10.4662Z" stroke="var(--color-primary)" stroke-miterlimit="10"/>
<path d="M5.38349 34.4061V24.2407M10.4662 29.3234H0.300781H10.4662Z" stroke="var(--color-primary)" stroke-width="2" stroke-miterlimit="10"/>
<path d="M5.38349 10.1654V0M10.4662 5.08271H0.300781H10.4662Z" stroke="var(--color-primary)" stroke-width="2" stroke-miterlimit="10"/>
<path d="M28.8425 34.4061V24.2407M33.9252 29.3234H23.7598H33.9252Z" stroke="var(--color-primary)" stroke-miterlimit="10"/>
<path d="M28.8425 10.1654V0M33.9252 5.08271H23.7598H33.9252Z" stroke="var(--color-primary)" stroke-miterlimit="10"/>
<path d="M28.8425 34.4061V24.2407M33.9252 29.3234H23.7598H33.9252Z" stroke="var(--color-primary)" stroke-width="2" stroke-miterlimit="10"/>
<path d="M28.8425 10.1654V0M33.9252 5.08271H23.7598H33.9252Z" stroke="var(--color-primary)" stroke-width="2" stroke-miterlimit="10"/>
<path d="M52.3015 34.4061V24.2407M57.3842 29.3234H47.2188H57.3842Z" stroke="var(--color-primary)" stroke-miterlimit="10"/>
<path d="M52.3015 10.1654V0M57.3842 5.08271H47.2188H57.3842Z" stroke="var(--color-primary)" stroke-miterlimit="10"/>
<path d="M52.3015 34.4061V24.2407M57.3842 29.3234H47.2188H57.3842Z" stroke="var(--color-primary)" stroke-width="2" stroke-miterlimit="10"/>
<path d="M52.3015 10.1654V0M57.3842 5.08271H47.2188H57.3842Z" stroke="var(--color-primary)" stroke-width="2" stroke-miterlimit="10"/>
<path d="M75.7595 34.4061V24.2407M80.8422 29.3234H70.6768H80.8422Z" stroke="var(--color-primary)" stroke-miterlimit="10"/>
<path d="M75.7595 10.1654V0M80.8422 5.08271H70.6768H80.8422Z" stroke="var(--color-primary)" stroke-miterlimit="10"/>
<path d="M75.7595 34.4061V24.2407M80.8422 29.3234H70.6768H80.8422Z" stroke="var(--color-primary)" stroke-width="2" stroke-miterlimit="10"/>
<path d="M75.7595 10.1654V0M80.8422 5.08271H70.6768H80.8422Z" stroke="var(--color-primary)" stroke-width="2" stroke-miterlimit="10"/>
<path d="M99.2184 34.4061V24.2407M104.301 29.3234H94.1357H104.301Z" stroke="var(--color-primary)" stroke-miterlimit="10"/>
<path d="M99.2184 10.1654V0M104.301 5.08271H94.1357H104.301Z" stroke="var(--color-primary)" stroke-miterlimit="10"/>
<path d="M99.2184 34.4061V24.2407M104.301 29.3234H94.1357H104.301Z" stroke="var(--color-primary)" stroke-width="2" stroke-miterlimit="10"/>
<path d="M99.2184 10.1654V0M104.301 5.08271H94.1357H104.301Z" stroke="var(--color-primary)" stroke-width="2" stroke-miterlimit="10"/>
</svg>
